<?xml version="1.0" encoding="utf-8"?>
<svg xmlns="http://www.w3.org/2000/svg" viewBox="0 0 500 500" xmlns:bx="https://boxy-svg.com">
  <defs>
    <style bx:fonts="Anton">
      @import url(https://fonts.googleapis.com/css2?family=Anton%3Aital%2Cwght%400%2C400&amp;display=swap);
      
      .outline {
        stroke-width: 0px;
        paint-order: fill;
        
      }
      
      .green {
        fill: rgb(94, 196, 56);
        animation: boing1  0.5s ease-in-out infinite;
      }
      
      .red {
        fill: rgb(224, 54, 54);
        animation: boing2  0.5s ease-in-out infinite;
      }
      
      .svg-text {
        fill: rgb(54, 6, 6);
        animation: boing3  0.5s ease-in-out infinite;
      }
      /*Animaciones*/
      @keyframes boing1 {
        0%, 100% {
          transform: translateY(0);
        }
        50% {
          transform: translateY(-16px);
          fill:rgb(141, 235, 107);
        }
      }
      @keyframes boing2 {
        0%, 100% {
          transform: translateY(0);
        }
        50% {
          transform: translateY(-12px);
          fill: rgb(254, 88, 88);
        }
      }
      @keyframes boing3 {
        0%, 100% {
          transform: translateY(1px);
        }
        50% {
          transform: translateY(-20px);
          fill: rgb(21, 6, 54);
        }
      }
    </style>
  </defs>
  <path class="outline green" d="M 470.768 198.84 C 470.768 291.908 373.002 367.354 252.401 367.354 C 131.8 367.354 34.034 291.908 34.034 198.84 C 34.034 197.427 34.057 196.018 34.101 194.613 L 56.266 194.613 C 56.216 196.017 56.191 197.426 56.191 198.84 C 56.191 282.464 144.037 350.255 252.401 350.255 C 360.765 350.255 448.611 282.464 448.611 198.84 C 448.611 197.426 448.586 196.017 448.536 194.613 L 470.701 194.613 C 470.745 196.018 470.768 197.427 470.768 198.84 Z"/>
  <path class="outline red" d="M 439.68 198.84 C 439.68 278.657 355.832 343.362 252.401 343.362 C 148.97 343.362 65.122 278.657 65.122 198.84 C 65.122 197.426 65.148 196.017 65.201 194.613 L 439.601 194.613 C 439.654 196.017 439.68 197.426 439.68 198.84 Z"/>
  <path class="svg-text " d="M 136.004 344.649 Q 106.585 344.649 93.584 330.001 Q 80.584 315.352 80.584 283.37 L 80.584 262.374 L 123.064 262.374 L 123.064 289.229 Q 123.064 296.676 125.323 300.887 Q 127.581 305.098 133.196 305.098 Q 139.056 305.098 141.314 301.68 Q 143.572 298.262 143.572 290.45 Q 143.572 280.562 141.619 273.909 Q 139.666 267.257 134.844 261.214 Q 130.022 255.172 121.478 247.115 L 102.19 228.804 Q 80.584 208.419 80.584 182.174 Q 80.584 154.708 93.34 140.303 Q 106.097 125.899 130.267 125.899 Q 159.808 125.899 172.198 141.646 Q 184.588 157.393 184.588 189.498 L 140.887 189.498 L 140.887 174.727 Q 140.887 170.333 138.384 167.891 Q 135.882 165.45 131.609 165.45 Q 126.482 165.45 124.102 168.319 Q 121.722 171.187 121.722 175.704 Q 121.722 180.22 124.163 185.469 Q 126.604 190.718 133.807 197.554 L 158.587 221.358 Q 166.033 228.438 172.259 236.312 Q 178.484 244.185 182.269 254.622 Q 186.053 265.059 186.053 280.074 Q 186.053 310.347 174.883 327.498 Q 163.714 344.649 136.004 344.649 Z M 220.106 342.696 L 193.616 127.73 L 234.51 127.73 L 250.257 273.97 L 264.295 127.73 L 305.189 127.73 L 278.699 342.696 Z M 361.943 344.649 Q 315.923 344.649 315.923 278.731 L 315.923 186.08 Q 315.923 125.899 368.657 125.899 Q 390.385 125.899 401.982 134.627 Q 413.579 143.355 417.973 160.079 Q 422.368 176.802 422.368 200.85 L 380.376 200.85 L 380.376 181.807 Q 380.376 174.849 378.484 170.15 Q 376.592 165.45 370.61 165.45 Q 363.164 165.45 360.783 170.455 Q 358.403 175.46 358.403 181.441 L 358.403 285.567 Q 358.403 294.234 360.661 299.666 Q 362.92 305.098 369.511 305.098 Q 376.347 305.098 378.606 299.666 Q 380.864 294.234 380.864 285.323 L 380.864 254.683 L 369.389 254.683 L 369.389 217.574 L 421.88 217.574 L 421.88 342.696 L 404.668 342.696 L 397.343 324.63 Q 386.113 344.649 361.943 344.649 Z" />
</svg>